<?xml version="1.0" encoding="utf-8"?>
<!-- Generator: Adobe Illustrator 27.1.1, SVG Export Plug-In . SVG Version: 6.00 Build 0)  -->
<svg version="1.1" id="Layer_1" xmlns="http://www.w3.org/2000/svg" xmlns:xlink="http://www.w3.org/1999/xlink" x="0px" y="0px"
	 viewBox="0 0 116.29 123.2" style="enable-background:new 0 0 116.29 123.2;" xml:space="preserve">
<style type="text/css">
	.st0{fill:#E8E8E8;}
	.st1{fill:#F78C00;}
	.st2{fill-rule:evenodd;clip-rule:evenodd;fill:#F78C00;}
</style>
<g>
	<circle class="st0" cx="29.23" cy="18.06" r="4.14"/>
	<path class="st1" d="M28.57,22.57c-0.58-0.09-1.14-0.28-1.65-0.58c-0.51-0.3-0.95-0.69-1.31-1.16c-0.37-0.48-0.64-1.03-0.79-1.63
		s-0.19-1.2-0.1-1.81c0.09-0.58,0.28-1.14,0.58-1.65c0.3-0.51,0.69-0.95,1.16-1.31c0.48-0.37,1.03-0.64,1.63-0.79
		c0.6-0.15,1.2-0.19,1.81-0.1c0.58,0.09,1.14,0.28,1.65,0.58c0.51,0.3,0.95,0.69,1.31,1.16c0.37,0.48,0.64,1.03,0.79,1.63
		c0.15,0.6,0.19,1.2,0.1,1.81c-0.09,0.58-0.28,1.14-0.58,1.65c-0.3,0.51-0.69,0.95-1.16,1.31c-0.48,0.37-1.03,0.64-1.63,0.79
		C29.78,22.62,29.17,22.66,28.57,22.57z M25.62,19c0.52,1.99,2.56,3.19,4.55,2.68s3.19-2.56,2.68-4.55
		c-0.52-1.99-2.56-3.19-4.55-2.68C26.3,14.96,25.1,17,25.62,19z"/>
	<g>
		<path class="st1" d="M20.58,26.44c-0.07,0.07-0.15,0.14-0.22,0.2c-0.53-0.32-0.95-0.78-1.2-1.33V25.3
			c0.08-0.06,0.15-0.13,0.21-0.2C19.6,25.66,20.02,26.14,20.58,26.44z"/>
		<path class="st1" d="M29.16,23.27c-0.11,0.5-0.35,1.04-0.82,1.45c-0.4,0.35-0.85,0.5-0.97,0.54c-0.8,0.23-1.5-0.02-1.72-0.1
			c-0.99-0.34-1.44-1.07-1.88-1.78c-0.26-0.41-0.5-0.81-0.84-1.11h-0.01c-0.2-0.18-0.44-0.32-0.73-0.41
			c-0.35-0.11-0.74-0.13-1.1-0.06c0.02-0.09,0.03-0.19,0.04-0.29c0.38-0.05,0.78-0.02,1.14,0.09c0.26,0.08,0.49,0.2,0.68,0.34
			c0.46,0.34,0.76,0.82,1.05,1.29c0.41,0.67,0.84,1.36,1.74,1.67c0.2,0.08,0.84,0.3,1.55,0.09c0.11-0.03,0.51-0.16,0.87-0.48
			c0.41-0.36,0.62-0.83,0.73-1.27c0.14-0.58,0.1-1.1,0.08-1.25c-0.01-0.08,0.05-0.15,0.12-0.15c0.08-0.01,0.15,0.04,0.15,0.12
			C29.26,22.12,29.31,22.66,29.16,23.27z"/>
	</g>
	<path class="st1" d="M28.81,23.21c-0.36-0.17-0.51-0.61-0.34-0.97c0.17-0.36,0.61-0.51,0.97-0.34c0.36,0.17,0.51,0.61,0.34,0.97
		C29.6,23.23,29.17,23.38,28.81,23.21z"/>
</g>
<g>
	<path class="st2" d="M109.74,40.69c-2.05-7.1-5.1-12.68-9.15-16.73c-0.1-0.09-0.19-0.18-0.28-0.27c1.72,0.09,4.1,1.09,5.08,2.36
		c1.07,1.39,4.07,8.57,5.14,8.25c1.08-0.32-1.82-5.68-1.5-6.22c0.32-0.53,0.86,0,1.4-0.32c0.53-0.32-1.83-3.21-1.08-3.21
		s2.15,2.36,2.47,1.82c0.32-0.54-2.36-3.97-2.79-5.15c-0.43-1.18-3-8.04-4.82-9.97c-1.82-1.92-2.15-2.25-3.32-4.39
		c-1.18-2.14-3.43-3.54-3.43-3.54S96.92-0.11,92.74,0s-3.65,3.54-3.65,3.54c-1.07,2.68,0,3.21,0,3.21c0-0.75,1.29-1.5,1.61-0.53
		c0.32,0.96,0,4.07,0.32,5.78c0.33,1.72,1.18,3.01,2.79,4.51c1.19,1.11,1.92,2.88,2.21,3.71c-3.1-2.06-6.63-3.56-10.59-4.51
		c-6.05-1.45-13.12-2.18-21.22-2.18H38.5c-0.34-0.7-0.71-1.38-1.14-2.04c-1.31-1.98-3-3.32-5.21-4.19C29.09,6.09,25.37,5.92,22.12,6
		c-4.58,0.12-9.4,1.36-12.41,5.07c-0.62,0.76-1.12,1.59-1.51,2.46H0v71.52c30.23-10.84-3.01-54.11,8.04-68.3
		c0,0.07-0.24,0.96-0.29,1.31c-1.63,12.38,7.85,12.6,12.61,8.58c0.07-0.06,0.15-0.13,0.22-0.2c1.27-1.13,2.16-2.58,2.34-4.17h0.01
		c0.01-0.11,0.02-0.22,0.02-0.33c0.01-0.03,0.01-0.05,0.01-0.08c0.2-5.04-2.62-5.27-3-10.13c0,0-0.37,1.31-0.4,2.5
		c-0.04,1.2,0.47,2.36,1.3,4.98c0.26,0.8,0.33,1.57,0.27,2.3c-0.01,0.1-0.02,0.2-0.04,0.29c-0.19,1.29-0.82,2.42-1.72,3.3
		c-0.06,0.07-0.13,0.14-0.21,0.2v0.01c-3.09,2.78-8.83,2.56-10.06-4.94C8.23,15.07,10.99,8.1,22.17,7.81
		c11.19-0.29,13.29,3.27,15.22,7.62c1.92,4.36,6.31,4.07,8.67,4.76c2.36,0.69,1.96,2.62,1.38,3.38c-0.58,0.76,0.11,4.9-5.04,7.66
		c-5.16,2.76-10.17,0.15-15.98,2.11c-5.81,1.96-6.18,9.22-6.18,9.73c3.04-8.5,8.68-9.24,10-9.3c0.45-0.04,0.92,0.05,1.4,0.33
		C45.95,42.41,65.83,52.41,69,70.67c1.7-0.55,4.33-1.14,5.6-0.06c1.97,1.67,1.97,1.67,1.97,1.67l0.35-1.94c0,0,4.39,2.53,4.87,6.11
		c0.47,3.58,0.47,3.58,0.47,3.58l1.46-1.13c0,0,0.87,10.38-8.55,16.1c-6.32,3.84-12.74,2.59-16.29,1.35
		c-1.63,1.17-3.28,2.12-4.79,2.89h-9.32v-0.03c0.07-1.75,1.78-5.89,5.06-10.9c2.15-3.28,4.4-7.9,5.3-11.85
		c1.29-5.21,2.83-17.62-7.78-28.01c0,0-2.37-2.93-4.55-5.24s-2.69-2.51-2.69-2.51s-1.74,1.75-1.76,3.6c-0.02,1.85-0.03,2-0.03,2
		s-5.56,1.47-6.42,3.13c-0.86,1.67-0.51,2.69-1.2,3.93c-0.69,1.25-1.66,1.12-1.86,1.82c-0.19,0.71,0.2,1.5,0.19,1.73
		c-0.01,0.23-0.37,2.08,1.19,3.32l1.16,0.91c3.94,0.74,7.45,2.64,6.81,8.16c-0.41-3.05-1.84-6.09-4.82-6.19
		c-0.27-0.01-0.53-0.01-0.79-0.01c-9.81,0-17.15,6.13-19.64,15.7c-1.87,6.99-0.5,15.06,0.92,20.44H0v23.96h64.21
		c8.1,0,15.17-0.73,21.22-2.18c6.05-1.45,11.11-4.17,15.16-8.18c4.05-4,7.1-9.55,9.15-16.65c2.05-7.1,3.07-16.35,3.07-27.75
		S111.79,47.79,109.74,40.69z M34.81,99.24c-1.02-3.57-2.94-8.06-3.11-8.47c0.24,0.33,2.2,3.1,3.74,6.92
		c0.21,0.52,0.39,1.04,0.55,1.55H34.81z M41.75,99.24c-0.43-2.12-1.17-4.89-1.29-6.81c-0.18-2.86,1.55-5.05,1.55-5.05
		c-1.35,3.32-0.36,8.54,0.7,11.8l0.03,0.06H41.75z M83.63,76.64l-0.06-0.42c-0.41-3.08-3.14-5.93-5.74-7.44l-2.22-1.28l-0.26,1.43
		c-1.39-0.9-3.26-0.84-4.97-0.5c-3.42-14.27-16.42-23.35-28.94-30.74h22.62c3.6,0,6.67,0.42,9.22,1.27c2.55,0.85,4.6,2.43,6.15,4.73
		c1.55,2.3,2.68,5.45,3.38,9.45c0.7,4,1.05,9.1,1.05,15.3C83.86,71.44,83.78,74.17,83.63,76.64z M69.97,73.95l-0.64-0.68
		c0.21,2.64,0.09,5.44-0.43,8.42c-0.67,3.82-2.37,7-4.52,9.61c1.78,0.26,3.8-0.27,5.77-2.5C75.7,82.54,72.54,76.63,69.97,73.95z"/>
</g>
</svg>
