<?xml version="1.0" encoding="utf-8"?>
<!-- Generator: Adobe Illustrator 26.4.1, SVG Export Plug-In . SVG Version: 6.00 Build 0)  -->
<svg version="1.1" id="Layer_1" xmlns="http://www.w3.org/2000/svg" xmlns:xlink="http://www.w3.org/1999/xlink" x="0px" y="0px"
	 viewBox="0 0 340 192" style="enable-background:new 0 0 340 192;" xml:space="preserve">
<style type="text/css">
	.st0{fill:#E8E8E8;}
	.st1{fill:#F78C00;}
	.st2{fill-rule:evenodd;clip-rule:evenodd;fill:#F78C00;}
	.st3{fill:#FFFFFF;}
</style>
<g>
	<circle class="st0" cx="167.6" cy="19.1" r="4.1"/>
	<path class="st1" d="M166.9,23.7c-0.6-0.1-1.1-0.3-1.6-0.6s-0.9-0.7-1.3-1.2c-0.4-0.5-0.6-1-0.8-1.6c-0.1-0.6-0.2-1.2-0.1-1.8
		c0.1-0.6,0.3-1.1,0.6-1.6s0.7-0.9,1.2-1.3c0.5-0.4,1-0.6,1.6-0.8s1.2-0.2,1.8-0.1c0.6,0.1,1.1,0.3,1.6,0.6s0.9,0.7,1.3,1.2
		c0.4,0.5,0.6,1,0.8,1.6c0.1,0.6,0.2,1.2,0.1,1.8c-0.1,0.6-0.3,1.1-0.6,1.6s-0.7,1-1.2,1.3c-0.5,0.4-1,0.6-1.6,0.8
		C168.1,23.7,167.5,23.8,166.9,23.7z M163.9,20.1c0.5,2,2.6,3.2,4.6,2.7s3.2-2.6,2.7-4.5c-0.5-2-2.6-3.2-4.6-2.7
		C164.6,16,163.4,18.1,163.9,20.1z"/>
	<g>
		<path class="st1" d="M158.9,27.5c-0.1,0.1-0.1,0.1-0.2,0.2c-0.5-0.3-0.9-0.8-1.2-1.3l0,0c0.1-0.1,0.1-0.1,0.2-0.2
			C157.9,26.8,158.3,27.2,158.9,27.5z"/>
		<path class="st1" d="M167.5,24.4c-0.1,0.5-0.4,1-0.8,1.5c-0.4,0.4-0.9,0.5-1,0.5c-0.8,0.2-1.5,0-1.7-0.1c-1-0.3-1.4-1.1-1.9-1.8
			c-0.3-0.4-0.5-0.8-0.8-1.1l0,0c-0.2-0.2-0.4-0.3-0.7-0.4c-0.4-0.1-0.7-0.1-1.1-0.1c0-0.1,0-0.2,0-0.3c0.4,0,0.8,0,1.1,0.1
			s0.5,0.2,0.7,0.3c0.5,0.3,0.8,0.8,1.1,1.3c0.4,0.7,0.8,1.4,1.7,1.7c0.2,0.1,0.8,0.3,1.6,0.1c0.1,0,0.5-0.2,0.9-0.5
			c0.4-0.4,0.6-0.8,0.7-1.3c0.1-0.6,0.1-1.1,0.1-1.2s0.1-0.1,0.1-0.1c0.1,0,0.1,0,0.1,0.1C167.6,23.2,167.6,23.8,167.5,24.4z"/>
	</g>
	<path class="st1" d="M167.1,24.3c-0.4-0.2-0.5-0.6-0.3-1s0.6-0.5,1-0.3s0.5,0.6,0.3,1C167.9,24.3,167.5,24.5,167.1,24.3z"/>
</g>
<g>
	<g>
		<path class="st2" d="M248.1,41.8c-2.1-7.1-5.1-12.7-9.1-16.7c-0.1-0.1-0.2-0.2-0.3-0.3c1.7,0.1,4.1,1.1,5.1,2.4
			c1.1,1.4,4.1,8.6,5.1,8.2c1.1-0.3-1.8-5.7-1.5-6.2s0.9,0,1.4-0.3s-1.8-3.2-1.1-3.2s2.1,2.4,2.5,1.8s-2.4-4-2.8-5.1s-3-8-4.8-10
			c-1.8-1.9-2.1-2.2-3.3-4.4c-1.2-2.1-3.4-3.5-3.4-3.5s-0.5-3.4-4.7-3.3s-3.6,3.5-3.6,3.5c-1.1,2.7,0,3.2,0,3.2
			c0-0.8,1.3-1.5,1.6-0.5s0,4.1,0.3,5.8s1.2,3,2.8,4.5c1.2,1.1,1.9,2.9,2.2,3.7c-3.1-2.1-6.6-3.6-10.6-4.5
			c-6.1-1.4-13.1-2.2-21.2-2.2H177c-0.3-0.7-0.7-1.4-1.1-2c-1.3-2-3-3.3-5.2-4.2c-3.1-1.2-6.8-1.4-10-1.3c-4.6,0.1-9.4,1.4-12.4,5.1
			c-0.6,0.8-1.1,1.6-1.5,2.5h-8.2v71.5c30.2-10.8-3-54.1,8-68.3c0,0.1-0.2,1-0.3,1.3c-1.6,12.4,7.9,12.6,12.6,8.6
			c0.1-0.1,0.1-0.1,0.2-0.2c1.3-1.1,2.2-2.6,2.3-4.2l0,0c0-0.1,0-0.2,0-0.3c0,0,0,0,0-0.1c0.2-5-2.6-5.3-3-10.1c0,0-0.4,1.3-0.4,2.5
			s0.5,2.4,1.3,5c0.3,0.8,0.3,1.6,0.3,2.3c0,0.1,0,0.2,0,0.3c-0.2,1.3-0.8,2.4-1.7,3.3c-0.1,0.1-0.1,0.1-0.2,0.2l0,0
			c-3.1,2.8-8.8,2.6-10.1-4.9c-0.9-5.3,1.9-12.3,13.1-12.6c11.2-0.3,13.3,3.3,15.2,7.6c1.9,4.4,6.3,4.1,8.7,4.8s2,2.6,1.4,3.4
			s0.1,4.9-5,7.7c-5.2,2.8-10.2,0.2-16,2.1s-6.2,9.2-6.2,9.7c3-8.5,8.7-9.2,10-9.3c0.4,0,0.9,0,1.4,0.3
			c14.3,8.3,34.2,18.3,37.4,36.6c1.7-0.6,4.3-1.1,5.6-0.1c2,1.7,2,1.7,2,1.7l0.4-1.9c0,0,4.4,2.5,4.9,6.1s0.5,3.6,0.5,3.6l1-1.4
			c0,0,0.9,10.4-8.6,16.1c-6.3,3.8-12.7,2.6-16.3,1.3c-1.6,1.2-3.3,2.1-4.8,2.9H183l0,0c0.1-1.8,1.8-5.9,5.1-10.9
			c2.1-3.3,4.4-7.9,5.3-11.8c1.3-5.2,2.8-17.6-7.8-28c0,0-2.4-2.9-4.6-5.2s-2.7-2.5-2.7-2.5s-1.7,1.8-1.8,3.6c0,1.8,0,2,0,2
			s-5.6,1.5-6.4,3.1c-0.9,1.7-0.5,2.7-1.2,3.9s-1.7,1.1-1.9,1.8s0.2,1.5,0.2,1.7s-0.4,2.1,1.2,3.3l1.2,0.9c3.9,0.7,7.4,2.6,6.8,8.2
			c-0.4-3.1-1.8-6.1-4.8-6.2c-0.3,0-0.5,0-0.8,0c-9.8,0-17.1,6.1-19.6,15.7c-1.9,7-0.5,15.1,0.9,20.4h-13.9v24h64.2
			c8.1,0,15.2-0.7,21.2-2.2s11.1-4.2,15.2-8.2c4.1-4,7.1-9.6,9.1-16.7c2.1-7.1,3.1-16.3,3.1-27.8S250.1,48.9,248.1,41.8z
			 M173.1,100.3c-1-3.6-2.9-8.1-3.1-8.5c0.2,0.3,2.2,3.1,3.7,6.9c0.2,0.5,0.4,1,0.6,1.6H173.1z M180.1,100.3
			c-0.4-2.1-1.2-4.9-1.3-6.8c-0.2-2.9,1.6-5.1,1.6-5.1c-1.4,3.3-0.4,8.5,0.7,11.8v0.1H180.1z M221.9,77.7l-0.1-0.4
			c-0.4-3.1-3.1-5.9-5.7-7.4l-2.2-1.3l-0.3,1.4c-1.4-0.9-3.3-0.8-5-0.5c-3.4-14.3-16.4-23.3-28.9-30.7h22.6c3.6,0,6.7,0.4,9.2,1.3
			c2.6,0.8,4.6,2.4,6.1,4.7c1.6,2.3,2.7,5.5,3.4,9.5s1.1,9.1,1.1,15.3C222.2,72.5,222.1,75.3,221.9,77.7z M208.3,75l-0.6-0.7
			c0.2,2.6,0.1,5.4-0.4,8.4c-0.7,3.8-2.4,7-4.5,9.6c1.8,0.3,3.8-0.3,5.8-2.5C214,83.6,210.9,77.7,208.3,75z"/>
	</g>
	<g>
		<g>
			<path class="st3" d="M62.6,182.6c-2.8-1.2-4.9-2.9-6.4-5.1c-1.5-2.2-2.2-4.8-2.2-7.7v-1.3c0-0.2,0.1-0.4,0.2-0.6s0.3-0.2,0.6-0.2
				h9.4c0.2,0,0.4,0.1,0.6,0.2c0.2,0.2,0.2,0.4,0.2,0.6v0.8c0,1.5,0.7,2.8,2.2,3.9c1.5,1.1,3.5,1.6,6,1.6c2,0,3.4-0.4,4.4-1.3
				c0.9-0.9,1.4-1.8,1.4-3c0-0.9-0.3-1.6-0.8-2.2s-1.3-1-2.3-1.4c-0.9-0.4-2.4-0.9-4.4-1.6c-0.3-0.1-0.5-0.2-0.8-0.3
				s-0.5-0.1-0.7-0.2c-2.9-0.9-5.4-2-7.6-3.1c-2.2-1.1-4-2.6-5.5-4.6c-1.5-1.9-2.3-4.4-2.3-7.2s0.7-5.2,2.2-7.3s3.5-3.7,6.1-4.8
				s5.5-1.7,8.8-1.7c3.5,0,6.6,0.6,9.3,1.9s4.9,3,6.5,5.3s2.4,4.9,2.4,7.9v0.9c0,0.2-0.1,0.4-0.2,0.6c-0.2,0.2-0.3,0.2-0.6,0.2h-9.4
				c-0.2,0-0.4-0.1-0.6-0.2c-0.2-0.2-0.2-0.4-0.2-0.6v-0.5c0-1.6-0.7-3-2.1-4.2s-3.2-1.8-5.6-1.8c-1.8,0-3.1,0.4-4.1,1.1
				s-1.5,1.7-1.5,3c0,1,0.3,1.8,0.9,2.5c0.6,0.6,1.6,1.3,2.9,1.8c1.3,0.6,3.3,1.3,6.1,2.2c3.1,1.1,5.6,2,7.3,2.8s3.4,2.1,4.9,3.9
				s2.3,4.2,2.3,7.2c0,2.9-0.7,5.4-2.2,7.5s-3.6,3.7-6.2,4.9c-2.7,1.1-5.8,1.7-9.3,1.7C68.6,184.3,65.3,183.8,62.6,182.6z"/>
			<path class="st3" d="M121.7,138.3c2.7,1.5,4.8,3.5,6.3,6.2c1.5,2.6,2.2,5.7,2.2,9.2v14.1c0,3.9-1.1,7.3-3.2,10.1
				c-2.1,2.8-5,4.7-8.7,5.8c-0.2,0.1-0.3,0.2-0.3,0.3v5.2c0,0.2-0.1,0.4-0.2,0.6c-0.2,0.2-0.3,0.2-0.6,0.2h-9.6
				c-0.2,0-0.4-0.1-0.6-0.2c-0.2-0.2-0.2-0.4-0.2-0.6V184c0-0.2-0.1-0.3-0.3-0.3c-3.7-1-6.7-2.9-8.8-5.7c-2.1-2.8-3.2-6.2-3.2-10.2
				v-14.1c0-3.5,0.7-6.5,2.2-9.2c1.5-2.6,3.6-4.7,6.3-6.2s5.8-2.2,9.3-2.2C115.9,136.1,119,136.9,121.7,138.3z M119,153
				c0-2.2-0.6-4-1.8-5.3s-2.8-2-4.8-2s-3.6,0.7-4.8,2s-1.8,3.1-1.8,5.3v14.4c0,2.2,0.6,4,1.8,5.3s2.8,2,4.8,2s3.6-0.7,4.8-2
				s1.8-3.1,1.8-5.3V153z"/>
			<path class="st3" d="M144.2,182.3c-2.7-1.4-4.8-3.3-6.3-5.8s-2.2-5.4-2.2-8.7v-30.3c0-0.2,0.1-0.4,0.2-0.6s0.4-0.2,0.6-0.2h9.6
				c0.2,0,0.4,0.1,0.6,0.2s0.2,0.4,0.2,0.6v30.3c0,2.1,0.6,3.8,1.9,5.1c1.2,1.3,2.9,1.9,4.9,1.9s3.6-0.6,4.9-1.9
				c1.2-1.3,1.9-3,1.9-5.1v-30.3c0-0.2,0.1-0.4,0.2-0.6s0.4-0.2,0.6-0.2h9.6c0.2,0,0.4,0.1,0.6,0.2s0.2,0.4,0.2,0.6v30.3
				c0,3.3-0.7,6.2-2.2,8.7s-3.6,4.5-6.3,5.8c-2.7,1.4-5.9,2.1-9.4,2.1C150.1,184.3,147,183.7,144.2,182.3z"/>
			<path class="st3" d="M211.1,146c-0.2,0.2-0.4,0.2-0.6,0.2h-21.1c-0.2,0-0.3,0.1-0.3,0.3v8.3c0,0.2,0.1,0.3,0.3,0.3h13.5
				c0.2,0,0.4,0.1,0.6,0.2s0.2,0.4,0.2,0.6v7.9c0,0.2-0.1,0.4-0.2,0.6c-0.2,0.2-0.4,0.2-0.6,0.2h-13.5c-0.2,0-0.3,0.1-0.3,0.3v8.9
				c0,0.2,0.1,0.3,0.3,0.3h21.1c0.2,0,0.4,0.1,0.6,0.2c0.2,0.2,0.2,0.4,0.2,0.6v7.9c0,0.2-0.1,0.4-0.2,0.6c-0.2,0.2-0.4,0.2-0.6,0.2
				h-31.8c-0.2,0-0.4-0.1-0.6-0.2c-0.2-0.2-0.2-0.4-0.2-0.6v-45.5c0-0.2,0.1-0.4,0.2-0.6s0.4-0.2,0.6-0.2h31.8
				c0.2,0,0.4,0.1,0.6,0.2c0.2,0.2,0.2,0.4,0.2,0.6v7.9C211.3,145.7,211.2,145.9,211.1,146z"/>
			<path class="st3" d="M246.5,183.1l-1.8-6c-0.1-0.2-0.2-0.3-0.3-0.3h-15.3c-0.1,0-0.2,0.1-0.3,0.3l-1.8,6
				c-0.1,0.4-0.4,0.7-0.9,0.7h-10.3c-0.3,0-0.5-0.1-0.6-0.2s-0.2-0.4-0.1-0.7l14.4-45.5c0.1-0.4,0.4-0.7,0.9-0.7h12.7
				c0.4,0,0.7,0.2,0.9,0.7l14.5,45.5c0,0.1,0.1,0.2,0.1,0.3c0,0.4-0.2,0.6-0.7,0.6h-10.3C247,183.8,246.7,183.6,246.5,183.1z
				 M231.7,168.2h10c0.3,0,0.4-0.1,0.3-0.4l-5.1-17.3c-0.1-0.2-0.1-0.3-0.2-0.2c-0.1,0-0.2,0.1-0.2,0.2l-5.1,17.3
				C231.4,168.1,231.5,168.2,231.7,168.2z"/>
			<path class="st3" d="M263.7,183.6c-0.2-0.2-0.2-0.4-0.2-0.6v-45.5c0-0.2,0.1-0.4,0.2-0.6s0.4-0.2,0.6-0.2h9.6
				c0.2,0,0.4,0.1,0.6,0.2c0.2,0.2,0.2,0.4,0.2,0.6V155c0,0.1,0,0.2,0.1,0.2s0.2,0,0.3-0.1l13.6-18c0.3-0.3,0.6-0.5,0.9-0.5h10.9
				c0.5,0,0.7,0.2,0.7,0.5c0,0.1-0.1,0.3-0.2,0.5l-14.5,19.5c-0.1,0.2-0.1,0.3-0.1,0.5l15.2,25.2c0.1,0.3,0.1,0.4,0.1,0.5
				c0,0.3-0.2,0.5-0.7,0.5h-10.7c-0.5,0-0.8-0.2-1-0.5l-10.6-18c-0.1-0.3-0.3-0.3-0.5,0l-3.5,4.8c-0.1,0.2-0.1,0.3-0.1,0.4V183
				c0,0.2-0.1,0.4-0.2,0.6s-0.4,0.2-0.6,0.2h-9.6C264,183.8,263.8,183.7,263.7,183.6z"/>
			<path class="st3" d="M311.5,182.6c-2.8-1.2-4.9-2.9-6.4-5.1c-1.5-2.2-2.2-4.8-2.2-7.7v-1.3c0-0.2,0.1-0.4,0.2-0.6
				s0.4-0.2,0.6-0.2h9.4c0.2,0,0.4,0.1,0.6,0.2s0.2,0.4,0.2,0.6v0.8c0,1.5,0.7,2.8,2.2,3.9c1.5,1.1,3.5,1.6,6,1.6
				c2,0,3.4-0.4,4.4-1.3c0.9-0.9,1.4-1.8,1.4-3c0-0.9-0.3-1.6-0.8-2.2s-1.3-1-2.2-1.4s-2.4-0.9-4.4-1.6c-0.3-0.1-0.5-0.2-0.8-0.3
				s-0.5-0.1-0.7-0.2c-2.9-0.9-5.5-2-7.6-3.1s-4-2.6-5.5-4.6c-1.5-1.9-2.3-4.4-2.3-7.2s0.7-5.2,2.2-7.3s3.5-3.7,6.1-4.8
				s5.5-1.7,8.8-1.7c3.5,0,6.6,0.6,9.3,1.9s4.9,3,6.5,5.3s2.4,4.9,2.4,7.9v0.9c0,0.2-0.1,0.4-0.2,0.6c-0.2,0.2-0.4,0.2-0.6,0.2h-9.4
				c-0.2,0-0.4-0.1-0.6-0.2c-0.2-0.2-0.2-0.4-0.2-0.6v-0.5c0-1.6-0.7-3-2.1-4.2s-3.2-1.8-5.6-1.8c-1.8,0-3.1,0.4-4.1,1.1
				s-1.5,1.7-1.5,3c0,1,0.3,1.8,0.9,2.5c0.6,0.6,1.6,1.3,2.9,1.8c1.3,0.6,3.4,1.3,6.1,2.2c3.1,1.1,5.6,2,7.3,2.8s3.4,2.1,5,3.9
				c1.5,1.8,2.3,4.2,2.3,7.2c0,2.9-0.7,5.4-2.2,7.5s-3.6,3.7-6.2,4.9s-5.8,1.7-9.3,1.7C317.5,184.3,314.3,183.8,311.5,182.6z"/>
		</g>
	</g>
	<g>
		<path class="st1" d="M58.6,14.8c0.4-0.4,1-0.6,1.7-0.6h24.8c0.7,0,1.3,0.2,1.7,0.6s0.6,1,0.6,1.7v104.9c0,0.7-0.2,1.3-0.6,1.7
			c-0.4,0.4-1,0.6-1.7,0.6H60.3c-0.7,0-1.3-0.2-1.7-0.6s-0.6-1-0.6-1.7V81.7c0-0.5-0.3-0.8-0.8-0.8H32.7c-0.5,0-0.8,0.3-0.8,0.8
			v39.8c0,0.7-0.2,1.3-0.6,1.7c-0.4,0.4-1,0.6-1.7,0.6H4.8c-0.7,0-1.3-0.2-1.7-0.6s-0.6-1-0.6-1.7v-105c0-0.7,0.2-1.3,0.6-1.7
			s1-0.6,1.7-0.6h24.8c0.7,0,1.3,0.2,1.7,0.6s0.6,1,0.6,1.7v38.4c0,0.5,0.3,0.8,0.8,0.8h24.4c0.5,0,0.8-0.3,0.8-0.8V16.5
			C58,15.8,58.2,15.2,58.6,14.8z"/>
		<path class="st1" d="M98.8,123.2c-0.4-0.4-0.6-1-0.6-1.7v-105c0-0.7,0.2-1.3,0.6-1.7s1-0.6,1.7-0.6h24.8c0.7,0,1.3,0.2,1.7,0.6
			s0.6,1,0.6,1.7v104.9c0,0.7-0.2,1.3-0.6,1.7c-0.4,0.4-1,0.6-1.7,0.6h-24.8C99.8,123.8,99.2,123.6,98.8,123.2z"/>
	</g>
	<g>
		<path class="st1" d="M338.6,38.8c-0.4,0.4-1,0.6-1.7,0.6H290c-0.5,0-0.8,0.3-0.8,0.8v14.7c0,0.5,0.3,0.8,0.8,0.8h29
			c0.7,0,1.3,0.2,1.7,0.6c0.4,0.4,0.6,1,0.6,1.7v20.4c0,0.7-0.2,1.3-0.6,1.7c-0.4,0.4-1,0.6-1.7,0.6h-29c-0.5,0-0.8,0.3-0.8,0.8
			v16.3c0,0.5,0.3,0.8,0.8,0.8h46.8c0.7,0,1.3,0.2,1.7,0.6s0.6,1,0.6,1.7v20.5c0,0.7-0.2,1.3-0.6,1.7c-0.4,0.4-1,0.6-1.7,0.6h-74.7
			c-0.7,0-1.3-0.2-1.7-0.6c-0.4-0.4-0.6-1-0.6-1.7V16.5c0-0.7,0.2-1.3,0.6-1.7s1-0.6,1.7-0.6h74.7c0.7,0,1.3,0.2,1.7,0.6
			s0.6,1,0.6,1.7V37C339.2,37.8,339,38.3,338.6,38.8z"/>
	</g>
	<g>
		<g>
			<path class="st3" d="M44.8,183.3c0,0.3-0.2,0.5-0.7,0.5H33.5c-0.5,0-0.8-0.1-1-0.4l-2.3-2.5c-0.1-0.1-0.2-0.1-0.5-0.1
				c-4.2,2.3-8.7,3.5-13.3,3.5c-4.3,0-7.9-1-10.9-3s-4.4-5.1-4.4-9.1c0-3,0.8-5.4,2.3-7.5s3.7-3.8,6.3-5.4c0.3-0.2,0.3-0.3,0.1-0.5
				c-2.1-2.5-3.4-4.4-4.1-5.9s-1-3.1-1-4.8c0-2.2,0.6-4.2,1.8-6s2.9-3.3,5.1-4.3s4.7-1.6,7.6-1.6s5.5,0.6,7.8,1.6
				c2.3,1.1,4.1,2.6,5.4,4.6c1.3,2,2,4.2,2,6.8c0,2.8-0.7,5.2-2.2,7.2s-3.5,3.8-6.1,5.4c-0.2,0.1-0.2,0.3-0.1,0.5
				c0.9,1.1,2.5,2.7,4.5,5c0.1,0.2,0.3,0.2,0.5,0c1.9-1.9,3.3-3.7,4.2-5.3c0.1-0.2,0.3-0.4,0.5-0.4s0.4,0,0.6,0.1l7.1,4
				c0.5,0.3,0.6,0.7,0.3,1.1c-1.8,3.1-3.9,5.7-6.1,8c-0.1,0.1-0.1,0.3,0.1,0.5c0.9,1.1,2.7,3.1,5.2,5.8c0.4,0.4,0.7,0.8,0.9,1.1
				c0.3,0.3,0.5,0.6,0.7,0.7C44.7,183.1,44.8,183.2,44.8,183.3z M22.6,173.4c0.2-0.1,0.2-0.3,0.1-0.5l-3-3.2
				c-0.2-0.2-1.1-1.1-2.7-2.9c-0.1-0.1-0.2-0.2-0.5-0.1c-1.2,0.7-2.1,1.4-2.8,2.1c-0.7,0.7-1.1,1.4-1.2,2.2c0,0.2-0.1,0.4-0.1,0.7
				c0,0.9,0.4,1.7,1.2,2.3s1.8,0.9,3.1,0.9c0.5,0,1.1-0.1,1.7-0.2C19.9,174.6,21.3,174.1,22.6,173.4z M16.8,147.1
				c-0.6,0.6-1,1.3-1,2.1c0,0.5,0.2,1.1,0.6,1.7c0.4,0.6,1.2,1.7,2.5,3.2c0.1,0.2,0.2,0.2,0.5,0.1c1.3-0.8,2.2-1.5,2.9-2.3
				c0.7-0.8,1-1.6,1-2.6s-0.4-1.8-1-2.3c-0.7-0.6-1.6-0.8-2.7-0.8C18.3,146.2,17.4,146.5,16.8,147.1z"/>
		</g>
	</g>
</g>
</svg>
