<?xml version="1.0" encoding="utf-8"?>
<!-- Generator: Adobe Illustrator 27.1.1, SVG Export Plug-In . SVG Version: 6.00 Build 0)  -->
<svg version="1.1" id="Layer_1" xmlns="http://www.w3.org/2000/svg" xmlns:xlink="http://www.w3.org/1999/xlink" x="0px" y="0px"
	 viewBox="0 0 339.95 191.96" style="enable-background:new 0 0 339.95 191.96;" xml:space="preserve">
<style type="text/css">
	.st0{fill:#E8E8E8;}
	.st1{fill:#F78C00;}
	.st2{fill-rule:evenodd;clip-rule:evenodd;fill:#F78C00;}
	.st3{fill:#140D0F;}
</style>
<g>
	<circle class="st0" cx="167.56" cy="19.15" r="4.14"/>
	<path class="st1" d="M166.89,23.66c-0.58-0.09-1.14-0.28-1.65-0.58c-0.51-0.3-0.95-0.69-1.31-1.16c-0.37-0.48-0.64-1.03-0.79-1.63
		c-0.15-0.6-0.19-1.2-0.1-1.81c0.09-0.58,0.28-1.14,0.58-1.65c0.3-0.51,0.69-0.95,1.16-1.31c0.48-0.37,1.03-0.64,1.63-0.79
		s1.2-0.19,1.81-0.1c0.58,0.09,1.14,0.28,1.65,0.58c0.51,0.3,0.95,0.69,1.31,1.16c0.37,0.48,0.64,1.03,0.79,1.63
		c0.15,0.6,0.19,1.2,0.1,1.81c-0.09,0.58-0.28,1.14-0.58,1.65s-0.69,0.95-1.16,1.31c-0.48,0.37-1.03,0.64-1.63,0.79
		C168.11,23.71,167.5,23.75,166.89,23.66z M163.94,20.09c0.52,1.99,2.56,3.19,4.55,2.68c1.99-0.52,3.19-2.56,2.68-4.55
		c-0.52-1.99-2.56-3.19-4.55-2.68C164.63,16.05,163.43,18.09,163.94,20.09z"/>
	<g>
		<path class="st1" d="M158.9,27.53c-0.07,0.07-0.15,0.14-0.22,0.2c-0.53-0.32-0.95-0.78-1.2-1.33v-0.01
			c0.08-0.06,0.15-0.13,0.21-0.2C157.92,26.75,158.34,27.23,158.9,27.53z"/>
		<path class="st1" d="M167.48,24.36c-0.11,0.5-0.35,1.04-0.82,1.45c-0.4,0.35-0.85,0.5-0.97,0.54c-0.8,0.23-1.5-0.02-1.72-0.1
			c-0.99-0.34-1.44-1.07-1.88-1.78c-0.26-0.41-0.5-0.81-0.84-1.11h-0.01c-0.2-0.18-0.44-0.32-0.73-0.41
			c-0.35-0.11-0.74-0.13-1.1-0.06c0.02-0.09,0.03-0.19,0.04-0.29c0.38-0.05,0.78-0.02,1.14,0.09c0.26,0.08,0.49,0.2,0.68,0.34
			c0.46,0.34,0.76,0.82,1.05,1.29c0.41,0.67,0.84,1.36,1.74,1.67c0.2,0.08,0.84,0.3,1.55,0.09c0.11-0.03,0.51-0.16,0.87-0.48
			c0.41-0.36,0.62-0.83,0.73-1.27c0.14-0.58,0.1-1.1,0.08-1.25c-0.01-0.08,0.05-0.15,0.12-0.15c0.08-0.01,0.15,0.04,0.15,0.12
			C167.58,23.21,167.63,23.75,167.48,24.36z"/>
	</g>
	<path class="st1" d="M167.13,24.3c-0.36-0.17-0.51-0.61-0.34-0.97c0.17-0.36,0.61-0.51,0.97-0.34c0.36,0.17,0.51,0.61,0.34,0.97
		C167.93,24.32,167.49,24.47,167.13,24.3z"/>
</g>
<g>
	<g>
		<path class="st2" d="M248.06,41.78c-2.05-7.1-5.1-12.68-9.15-16.73c-0.1-0.09-0.19-0.18-0.28-0.27c1.72,0.09,4.1,1.09,5.08,2.36
			c1.07,1.39,4.07,8.57,5.14,8.25c1.08-0.32-1.82-5.68-1.5-6.22c0.32-0.53,0.86,0,1.4-0.32c0.53-0.32-1.83-3.21-1.08-3.21
			s2.15,2.36,2.47,1.82c0.32-0.54-2.36-3.97-2.79-5.15c-0.43-1.18-3-8.04-4.82-9.97c-1.82-1.92-2.15-2.25-3.32-4.39
			c-1.18-2.14-3.43-3.54-3.43-3.54s-0.54-3.43-4.72-3.32s-3.65,3.54-3.65,3.54c-1.07,2.68,0,3.21,0,3.21c0-0.75,1.29-1.5,1.61-0.53
			c0.32,0.96,0,4.07,0.32,5.78c0.33,1.72,1.18,3.01,2.79,4.51c1.19,1.11,1.92,2.88,2.21,3.71c-3.1-2.06-6.63-3.56-10.59-4.51
			c-6.05-1.45-13.12-2.18-21.22-2.18h-25.71c-0.34-0.7-0.71-1.38-1.14-2.04c-1.31-1.98-3-3.32-5.21-4.19
			c-3.06-1.21-6.78-1.38-10.03-1.3c-4.58,0.12-9.4,1.36-12.41,5.07c-0.62,0.76-1.12,1.59-1.51,2.46h-8.2v71.52
			c30.23-10.84-3.01-54.11,8.04-68.3c0,0.07-0.24,0.96-0.29,1.31c-1.63,12.38,7.85,12.6,12.61,8.58c0.07-0.06,0.15-0.13,0.22-0.2
			c1.27-1.13,2.16-2.58,2.34-4.17h0.01c0.01-0.11,0.02-0.22,0.02-0.33c0.01-0.03,0.01-0.05,0.01-0.08c0.2-5.04-2.62-5.27-3-10.13
			c0,0-0.37,1.31-0.4,2.5c-0.04,1.2,0.47,2.36,1.3,4.98c0.26,0.8,0.33,1.57,0.27,2.3c-0.01,0.1-0.02,0.2-0.04,0.29
			c-0.19,1.29-0.82,2.42-1.72,3.3c-0.06,0.07-0.13,0.14-0.21,0.2v0.01c-3.09,2.78-8.83,2.56-10.06-4.94
			c-0.87-5.3,1.89-12.27,13.07-12.56c11.19-0.29,13.29,3.27,15.22,7.62c1.92,4.36,6.31,4.07,8.67,4.76
			c2.36,0.69,1.96,2.62,1.38,3.38c-0.58,0.76,0.11,4.9-5.04,7.66c-5.16,2.76-10.17,0.15-15.98,2.11c-5.81,1.96-6.18,9.22-6.18,9.73
			c3.04-8.5,8.68-9.24,10-9.3c0.45-0.04,0.92,0.05,1.4,0.33c14.31,8.31,34.19,18.31,37.36,36.57c1.7-0.55,4.33-1.14,5.6-0.06
			c1.97,1.67,1.97,1.67,1.97,1.67l0.35-1.94c0,0,4.39,2.53,4.87,6.11c0.47,3.58,0.47,3.58,0.47,3.58l1.46-1.13
			c0,0,0.87,10.38-8.55,16.1c-6.32,3.84-12.74,2.59-16.29,1.35c-1.63,1.17-3.28,2.12-4.79,2.89h-9.32v-0.03
			c0.07-1.75,1.78-5.89,5.06-10.9c2.15-3.28,4.4-7.9,5.3-11.85c1.29-5.21,2.83-17.62-7.78-28.01c0,0-2.37-2.93-4.55-5.24
			s-2.69-2.51-2.69-2.51s-1.74,1.75-1.76,3.6c-0.02,1.85-0.03,2-0.03,2s-5.56,1.47-6.42,3.13c-0.86,1.67-0.51,2.69-1.2,3.93
			c-0.69,1.25-1.66,1.12-1.86,1.82c-0.19,0.71,0.2,1.5,0.19,1.73c-0.01,0.23-0.37,2.08,1.19,3.32l1.16,0.91
			c3.94,0.74,7.45,2.64,6.81,8.16c-0.41-3.05-1.84-6.09-4.82-6.19c-0.27-0.01-0.53-0.01-0.79-0.01c-9.81,0-17.15,6.13-19.64,15.7
			c-1.87,6.99-0.5,15.06,0.92,20.44h-13.86v23.96h64.21c8.1,0,15.17-0.73,21.22-2.18c6.05-1.45,11.11-4.17,15.16-8.18
			c4.05-4,7.1-9.55,9.15-16.65c2.05-7.1,3.07-16.35,3.07-27.75S250.11,48.88,248.06,41.78z M173.13,100.33
			c-1.02-3.57-2.94-8.06-3.11-8.47c0.24,0.33,2.2,3.1,3.74,6.92c0.21,0.52,0.39,1.04,0.55,1.55H173.13z M180.07,100.33
			c-0.43-2.12-1.17-4.89-1.29-6.81c-0.18-2.86,1.55-5.05,1.55-5.05c-1.35,3.32-0.36,8.54,0.7,11.8l0.03,0.06H180.07z M221.95,77.73
			l-0.06-0.42c-0.41-3.08-3.14-5.93-5.74-7.44l-2.22-1.28l-0.26,1.43c-1.39-0.9-3.26-0.84-4.97-0.5
			c-3.42-14.27-16.42-23.35-28.94-30.74h22.62c3.6,0,6.67,0.42,9.22,1.27c2.55,0.85,4.6,2.43,6.15,4.73
			c1.55,2.3,2.68,5.45,3.38,9.45c0.7,4,1.05,9.1,1.05,15.3C222.18,72.53,222.1,75.26,221.95,77.73z M208.29,75.04l-0.64-0.68
			c0.21,2.64,0.09,5.44-0.43,8.42c-0.67,3.82-2.37,7-4.52,9.61c1.78,0.26,3.8-0.27,5.77-2.5C214.02,83.63,210.86,77.72,208.29,75.04
			z"/>
	</g>
	<g>
		<g>
			<path class="st3" d="M62.59,182.56c-2.76-1.19-4.89-2.89-6.4-5.12c-1.5-2.22-2.25-4.79-2.25-7.71v-1.28
				c0-0.22,0.08-0.41,0.24-0.57c0.16-0.16,0.35-0.24,0.57-0.24h9.36c0.22,0,0.41,0.08,0.57,0.24c0.16,0.16,0.24,0.35,0.24,0.57v0.81
				c0,1.48,0.74,2.77,2.22,3.87c1.48,1.1,3.48,1.65,5.99,1.65c1.97,0,3.43-0.43,4.38-1.28c0.94-0.85,1.41-1.84,1.41-2.96
				c0-0.9-0.28-1.63-0.84-2.19c-0.56-0.56-1.31-1.03-2.26-1.41c-0.94-0.38-2.4-0.91-4.38-1.58c-0.27-0.13-0.54-0.24-0.81-0.3
				c-0.27-0.07-0.52-0.14-0.74-0.24c-2.92-0.94-5.45-1.96-7.61-3.06c-2.15-1.1-3.99-2.62-5.52-4.58c-1.53-1.95-2.29-4.36-2.29-7.24
				c0-2.78,0.73-5.22,2.19-7.3c1.46-2.09,3.49-3.69,6.09-4.81c2.6-1.12,5.54-1.68,8.82-1.68c3.46,0,6.56,0.63,9.32,1.89
				c2.76,1.26,4.92,3.03,6.5,5.32c1.57,2.29,2.36,4.91,2.36,7.88v0.94c0,0.22-0.08,0.42-0.24,0.57c-0.16,0.16-0.35,0.24-0.57,0.24
				h-9.36c-0.23,0-0.42-0.08-0.57-0.24c-0.16-0.16-0.24-0.35-0.24-0.57v-0.47c0-1.57-0.7-2.96-2.09-4.17
				c-1.39-1.21-3.25-1.82-5.59-1.82c-1.75,0-3.12,0.36-4.11,1.08c-0.99,0.72-1.48,1.73-1.48,3.03c0,0.99,0.31,1.81,0.94,2.46
				c0.63,0.65,1.6,1.26,2.93,1.82c1.32,0.56,3.35,1.29,6.09,2.19c3.14,1.08,5.59,2.02,7.34,2.83c1.75,0.81,3.4,2.12,4.95,3.94
				s2.32,4.21,2.32,7.17c0,2.92-0.74,5.43-2.22,7.54c-1.48,2.11-3.56,3.74-6.23,4.88c-2.67,1.14-5.78,1.72-9.32,1.72
				C68.6,184.34,65.35,183.75,62.59,182.56z"/>
			<path class="st3" d="M121.73,138.33c2.69,1.46,4.78,3.51,6.26,6.16c1.48,2.65,2.22,5.7,2.22,9.16v14.07
				c0,3.95-1.07,7.33-3.2,10.13c-2.13,2.81-5.04,4.72-8.72,5.76c-0.18,0.05-0.27,0.16-0.27,0.34v5.25c0,0.22-0.08,0.41-0.24,0.57
				c-0.16,0.16-0.35,0.24-0.57,0.24h-9.56c-0.23,0-0.42-0.08-0.57-0.24c-0.16-0.16-0.24-0.35-0.24-0.57v-5.25
				c0-0.18-0.09-0.29-0.27-0.34c-3.73-0.99-6.65-2.88-8.78-5.69c-2.13-2.8-3.2-6.2-3.2-10.2v-14.07c0-3.46,0.74-6.51,2.22-9.16
				c1.48-2.65,3.57-4.7,6.26-6.16c2.69-1.46,5.79-2.19,9.29-2.19C115.92,136.14,119.04,136.88,121.73,138.33z M119.04,153.04
				c0-2.2-0.61-3.97-1.82-5.32c-1.21-1.35-2.83-2.02-4.85-2.02c-1.98,0-3.57,0.67-4.78,2.02c-1.21,1.35-1.82,3.12-1.82,5.32v14.41
				c0,2.2,0.61,3.97,1.82,5.32c1.21,1.35,2.8,2.02,4.78,2.02c2.02,0,3.64-0.67,4.85-2.02c1.21-1.35,1.82-3.12,1.82-5.32V153.04z"/>
			<path class="st3" d="M144.25,182.29c-2.72-1.37-4.82-3.31-6.33-5.82c-1.5-2.51-2.25-5.41-2.25-8.68v-30.29
				c0-0.22,0.08-0.41,0.24-0.57c0.16-0.16,0.35-0.24,0.57-0.24h9.56c0.22,0,0.41,0.08,0.57,0.24c0.16,0.16,0.24,0.35,0.24,0.57
				v30.29c0,2.11,0.62,3.8,1.85,5.08c1.23,1.28,2.88,1.92,4.95,1.92c2.02,0,3.65-0.64,4.88-1.92c1.23-1.28,1.85-2.97,1.85-5.08
				v-30.29c0-0.22,0.08-0.41,0.24-0.57c0.16-0.16,0.35-0.24,0.57-0.24h9.56c0.22,0,0.41,0.08,0.57,0.24
				c0.16,0.16,0.24,0.35,0.24,0.57v30.29c0,3.28-0.74,6.17-2.22,8.68c-1.48,2.51-3.58,4.46-6.29,5.82
				c-2.72,1.37-5.85,2.05-9.39,2.05C150.09,184.34,146.96,183.66,144.25,182.29z"/>
			<path class="st3" d="M211.09,146.01c-0.16,0.16-0.35,0.24-0.57,0.24h-21.14c-0.22,0-0.34,0.11-0.34,0.34v8.28
				c0,0.22,0.11,0.34,0.34,0.34h13.53c0.22,0,0.41,0.08,0.57,0.24c0.16,0.16,0.23,0.35,0.23,0.57v7.88c0,0.22-0.08,0.42-0.23,0.57
				c-0.16,0.16-0.35,0.24-0.57,0.24h-13.53c-0.22,0-0.34,0.11-0.34,0.34v8.89c0,0.22,0.11,0.34,0.34,0.34h21.14
				c0.22,0,0.42,0.08,0.57,0.24c0.16,0.16,0.24,0.35,0.24,0.57V183c0,0.22-0.08,0.42-0.24,0.57c-0.16,0.16-0.35,0.24-0.57,0.24
				h-31.84c-0.23,0-0.42-0.08-0.57-0.24c-0.16-0.16-0.24-0.35-0.24-0.57v-45.51c0-0.22,0.08-0.41,0.24-0.57
				c0.16-0.16,0.35-0.24,0.57-0.24h31.84c0.22,0,0.42,0.08,0.57,0.24c0.16,0.16,0.24,0.35,0.24,0.57v7.94
				C211.33,145.66,211.25,145.85,211.09,146.01z"/>
			<path class="st3" d="M246.54,183.13l-1.75-5.99c-0.09-0.18-0.2-0.27-0.34-0.27H229.1c-0.13,0-0.25,0.09-0.34,0.27l-1.75,5.99
				c-0.13,0.45-0.45,0.67-0.94,0.67h-10.3c-0.27,0-0.47-0.08-0.61-0.24s-0.16-0.39-0.07-0.71l14.41-45.51
				c0.13-0.45,0.43-0.67,0.88-0.67h12.72c0.45,0,0.74,0.22,0.88,0.67l14.47,45.51c0.04,0.09,0.07,0.2,0.07,0.34
				c0,0.4-0.25,0.61-0.74,0.61h-10.3C246.98,183.81,246.67,183.58,246.54,183.13z M231.73,168.25h10.03c0.27,0,0.36-0.13,0.27-0.4
				l-5.12-17.3c-0.05-0.18-0.11-0.26-0.2-0.24c-0.09,0.02-0.16,0.1-0.2,0.24l-5.05,17.3C231.41,168.12,231.5,168.25,231.73,168.25z"
				/>
			<path class="st3" d="M263.67,183.57c-0.16-0.16-0.24-0.35-0.24-0.57v-45.51c0-0.22,0.08-0.41,0.24-0.57
				c0.16-0.16,0.35-0.24,0.57-0.24h9.56c0.22,0,0.42,0.08,0.57,0.24c0.16,0.16,0.24,0.35,0.24,0.57v17.5c0,0.13,0.04,0.21,0.13,0.24
				c0.09,0.02,0.18-0.01,0.27-0.1l13.6-17.97c0.27-0.31,0.58-0.47,0.94-0.47h10.91c0.45,0,0.67,0.16,0.67,0.47
				c0,0.13-0.07,0.31-0.2,0.54l-14.54,19.46c-0.09,0.18-0.11,0.34-0.07,0.47l15.21,25.24c0.09,0.27,0.13,0.43,0.13,0.47
				c0,0.32-0.23,0.47-0.67,0.47h-10.7c-0.49,0-0.83-0.18-1.01-0.54l-10.57-17.97c-0.13-0.27-0.29-0.27-0.47,0l-3.5,4.78
				c-0.09,0.18-0.13,0.31-0.13,0.4V183c0,0.22-0.08,0.42-0.24,0.57s-0.35,0.24-0.57,0.24h-9.56
				C264.01,183.81,263.82,183.73,263.67,183.57z"/>
			<path class="st3" d="M311.53,182.56c-2.76-1.19-4.89-2.89-6.4-5.12c-1.5-2.22-2.25-4.79-2.25-7.71v-1.28
				c0-0.22,0.08-0.41,0.24-0.57c0.16-0.16,0.35-0.24,0.57-0.24h9.36c0.22,0,0.41,0.08,0.57,0.24c0.16,0.16,0.24,0.35,0.24,0.57v0.81
				c0,1.48,0.74,2.77,2.22,3.87c1.48,1.1,3.48,1.65,5.99,1.65c1.97,0,3.43-0.43,4.38-1.28c0.94-0.85,1.41-1.84,1.41-2.96
				c0-0.9-0.28-1.63-0.84-2.19c-0.56-0.56-1.31-1.03-2.25-1.41c-0.94-0.38-2.4-0.91-4.38-1.58c-0.27-0.13-0.54-0.24-0.81-0.3
				c-0.27-0.07-0.52-0.14-0.74-0.24c-2.92-0.94-5.45-1.96-7.61-3.06c-2.15-1.1-4-2.62-5.52-4.58c-1.53-1.95-2.29-4.36-2.29-7.24
				c0-2.78,0.73-5.22,2.19-7.3c1.46-2.09,3.49-3.69,6.09-4.81c2.6-1.12,5.54-1.68,8.82-1.68c3.46,0,6.56,0.63,9.32,1.89
				c2.76,1.26,4.92,3.03,6.5,5.32c1.57,2.29,2.36,4.91,2.36,7.88v0.94c0,0.22-0.08,0.42-0.24,0.57c-0.16,0.16-0.35,0.24-0.57,0.24
				h-9.36c-0.22,0-0.42-0.08-0.57-0.24c-0.16-0.16-0.24-0.35-0.24-0.57v-0.47c0-1.57-0.7-2.96-2.09-4.17
				c-1.39-1.21-3.25-1.82-5.59-1.82c-1.75,0-3.12,0.36-4.11,1.08c-0.99,0.72-1.48,1.73-1.48,3.03c0,0.99,0.31,1.81,0.94,2.46
				c0.63,0.65,1.6,1.26,2.93,1.82c1.32,0.56,3.35,1.29,6.09,2.19c3.14,1.08,5.59,2.02,7.34,2.83c1.75,0.81,3.4,2.12,4.95,3.94
				c1.55,1.82,2.32,4.21,2.32,7.17c0,2.92-0.74,5.43-2.22,7.54c-1.48,2.11-3.56,3.74-6.23,4.88c-2.67,1.14-5.78,1.72-9.32,1.72
				C317.53,184.34,314.29,183.75,311.53,182.56z"/>
		</g>
	</g>
	<g>
		<path class="st1" d="M58.58,14.78c0.42-0.42,0.99-0.63,1.72-0.63h24.75c0.73,0,1.3,0.21,1.72,0.63c0.42,0.42,0.63,0.99,0.63,1.72
			v104.95c0,0.73-0.21,1.31-0.63,1.72c-0.42,0.42-0.99,0.63-1.72,0.63H60.3c-0.73,0-1.31-0.21-1.72-0.63
			c-0.42-0.42-0.63-0.99-0.63-1.72V81.67c0-0.52-0.26-0.78-0.78-0.78H32.74c-0.52,0-0.78,0.26-0.78,0.78v39.79
			c0,0.73-0.21,1.31-0.63,1.72c-0.42,0.42-0.99,0.63-1.72,0.63H4.85c-0.73,0-1.31-0.21-1.72-0.63c-0.42-0.42-0.63-0.99-0.63-1.72
			V16.5c0-0.73,0.21-1.3,0.63-1.72c0.42-0.42,0.99-0.63,1.72-0.63H29.6c0.73,0,1.3,0.21,1.72,0.63c0.42,0.42,0.63,0.99,0.63,1.72
			v38.38c0,0.52,0.26,0.78,0.78,0.78h24.44c0.52,0,0.78-0.26,0.78-0.78V16.5C57.96,15.77,58.16,15.2,58.58,14.78z"/>
		<path class="st1" d="M98.84,123.17c-0.42-0.42-0.63-0.99-0.63-1.72V16.5c0-0.73,0.21-1.3,0.63-1.72c0.42-0.42,0.99-0.63,1.72-0.63
			h24.75c0.73,0,1.3,0.21,1.72,0.63c0.42,0.42,0.63,0.99,0.63,1.72v104.95c0,0.73-0.21,1.31-0.63,1.72
			c-0.42,0.42-0.99,0.63-1.72,0.63h-24.75C99.83,123.8,99.25,123.59,98.84,123.17z"/>
	</g>
	<g>
		<path class="st1" d="M338.58,38.75c-0.42,0.42-0.99,0.63-1.72,0.63h-46.83c-0.52,0-0.78,0.26-0.78,0.78v14.72
			c0,0.52,0.26,0.78,0.78,0.78H319c0.73,0,1.3,0.21,1.72,0.63c0.42,0.42,0.63,0.99,0.63,1.72v20.36c0,0.73-0.21,1.31-0.63,1.72
			c-0.42,0.42-0.99,0.63-1.72,0.63h-28.98c-0.52,0-0.78,0.26-0.78,0.78V97.8c0,0.52,0.26,0.78,0.78,0.78h46.83
			c0.73,0,1.3,0.21,1.72,0.63c0.42,0.42,0.63,0.99,0.63,1.72v20.52c0,0.73-0.21,1.31-0.63,1.72c-0.42,0.42-0.99,0.63-1.72,0.63
			h-74.72c-0.73,0-1.31-0.21-1.72-0.63c-0.42-0.42-0.63-0.99-0.63-1.72V16.5c0-0.73,0.21-1.3,0.63-1.72
			c0.42-0.42,0.99-0.63,1.72-0.63h74.72c0.73,0,1.3,0.21,1.72,0.63c0.42,0.42,0.63,0.99,0.63,1.72v20.52
			C339.21,37.75,339,38.33,338.58,38.75z"/>
	</g>
	<g>
		<g>
			<path class="st3" d="M44.82,183.33c0,0.32-0.25,0.47-0.74,0.47H33.45c-0.45,0-0.79-0.13-1.01-0.4l-2.29-2.49
				c-0.09-0.09-0.25-0.11-0.47-0.07c-4.22,2.33-8.66,3.5-13.33,3.5c-4.31,0-7.93-1.01-10.87-3.03c-2.94-2.02-4.41-5.07-4.41-9.15
				c0-2.96,0.77-5.45,2.32-7.47s3.65-3.81,6.29-5.39c0.27-0.18,0.29-0.34,0.07-0.47c-2.06-2.47-3.43-4.44-4.11-5.92
				c-0.67-1.48-1.01-3.07-1.01-4.78c0-2.2,0.61-4.21,1.82-6.03c1.21-1.82,2.92-3.26,5.12-4.34c2.2-1.08,4.73-1.62,7.61-1.62
				c2.92,0,5.53,0.55,7.84,1.65c2.31,1.1,4.12,2.63,5.42,4.58c1.3,1.95,1.95,4.21,1.95,6.77c0,2.78-0.74,5.18-2.22,7.2
				c-1.48,2.02-3.5,3.84-6.06,5.45c-0.23,0.13-0.25,0.29-0.07,0.47c0.94,1.08,2.45,2.74,4.51,4.98c0.13,0.18,0.29,0.18,0.47,0
				c1.89-1.88,3.3-3.66,4.24-5.32c0.13-0.22,0.3-0.37,0.5-0.44c0.2-0.07,0.41-0.03,0.64,0.1l7.07,4.04
				c0.49,0.31,0.61,0.67,0.34,1.08c-1.84,3.05-3.88,5.72-6.13,8.01c-0.13,0.13-0.11,0.29,0.07,0.47c0.94,1.12,2.67,3.05,5.18,5.79
				c0.36,0.4,0.67,0.76,0.94,1.08c0.27,0.31,0.49,0.56,0.67,0.74C44.73,183.07,44.82,183.25,44.82,183.33z M22.61,173.44
				c0.22-0.13,0.25-0.29,0.07-0.47l-2.96-3.16c-0.18-0.18-1.08-1.14-2.69-2.89c-0.09-0.13-0.25-0.16-0.47-0.07
				c-1.21,0.72-2.15,1.41-2.83,2.09c-0.67,0.67-1.08,1.41-1.21,2.22c-0.04,0.18-0.07,0.43-0.07,0.74c0,0.94,0.39,1.72,1.18,2.32
				c0.78,0.61,1.81,0.91,3.06,0.91c0.54,0,1.1-0.07,1.68-0.2C19.85,174.61,21.26,174.11,22.61,173.44z M16.79,147.08
				c-0.65,0.56-0.98,1.27-0.98,2.12c0,0.5,0.19,1.06,0.57,1.68c0.38,0.63,1.2,1.71,2.46,3.23c0.09,0.18,0.25,0.22,0.47,0.13
				c1.26-0.76,2.22-1.52,2.89-2.29c0.67-0.76,1.01-1.62,1.01-2.56c0-0.99-0.35-1.76-1.04-2.32c-0.7-0.56-1.6-0.84-2.73-0.84
				C18.32,146.24,17.44,146.52,16.79,147.08z"/>
		</g>
	</g>
</g>
</svg>
